<svg width="100%" viewBox="0 0 960 561" xmlns="http://www.w3.org/2000/svg" xmlns:xlink="http://www.w3.org/1999/xlink">
<g id="graph0" class="graph" transform="scale(1 1) rotate(0) translate(4 556.4)">

<polygon fill="#ffffff" stroke="transparent" points="-4,4 -4,-556.4 955.451,-556.4 955.451,4 -4,4"></polygon>
<text text-anchor="middle" x="475.7255" y="-534" font-family="Roboto Condensed, sans-serif" font-size="16.00" fill="#000000">egg-development</text>
<!-- egg&#45;development@2.4.3 -->
<g id="node1" class="node module-egg_development maintainer-atian25 maintainer-dead_horse maintainer-eggjs maintainer-fengmk2 maintainer-jtyjty99999 maintainer-popomore license-mit">

<path fill="none" stroke="#000000" d="M108.2749,-245.3011C108.2749,-245.3011 6.2192,-245.3011 6.2192,-245.3011 2.9856,-245.3011 -.2481,-242.0674 -.2481,-238.8337 -.2481,-238.8337 -.2481,-232.3663 -.2481,-232.3663 -.2481,-229.1326 2.9856,-225.8989 6.2192,-225.8989 6.2192,-225.8989 108.2749,-225.8989 108.2749,-225.8989 111.5085,-225.8989 114.7422,-229.1326 114.7422,-232.3663 114.7422,-232.3663 114.7422,-238.8337 114.7422,-238.8337 114.7422,-242.0674 111.5085,-245.3011 108.2749,-245.3011"></path>
<text text-anchor="middle" x="57.247" y="-232.3" font-family="Roboto Condensed, sans-serif" font-size="11.00" fill="#000000">egg-development@2.4.3</text>
</g>
<!-- mz&#45;modules@2.1.0 -->
<g id="node2" class="node module-mz_modules maintainer-fengmk2 maintainer-popomore license-mit">

<path fill="none" stroke="#000000" d="M236.2873,-245.3011C236.2873,-245.3011 157.2071,-245.3011 157.2071,-245.3011 153.9734,-245.3011 150.7397,-242.0674 150.7397,-238.8337 150.7397,-238.8337 150.7397,-232.3663 150.7397,-232.3663 150.7397,-229.1326 153.9734,-225.8989 157.2071,-225.8989 157.2071,-225.8989 236.2873,-225.8989 236.2873,-225.8989 239.521,-225.8989 242.7547,-229.1326 242.7547,-232.3663 242.7547,-232.3663 242.7547,-238.8337 242.7547,-238.8337 242.7547,-242.0674 239.521,-245.3011 236.2873,-245.3011"></path>
<text text-anchor="middle" x="196.7472" y="-232.3" font-family="Roboto Condensed, sans-serif" font-size="11.00" fill="#000000">mz-modules@2.1.0</text>
</g>
<!-- egg&#45;development@2.4.3&#45;&gt;mz&#45;modules@2.1.0 -->
<g id="edge1" class="edge">

<path fill="none" stroke="#000000" d="M114.7925,-235.6C123.223,-235.6 131.899,-235.6 140.3071,-235.6"></path>
<polygon fill="#000000" stroke="#000000" points="140.3956,-239.1001 150.3956,-235.6 140.3956,-232.1001 140.3956,-239.1001"></polygon>
</g>
<!-- debounce@1.2.0 -->
<g id="node3" class="node module-debounce maintainer-amasad maintainer-anthonyshort maintainer-calvinfo maintainer-clintwood maintainer-coreh maintainer-cristiandouce maintainer-defunctzombie maintainer-dfcreative maintainer-dominicbarnes maintainer-forbeslindesay maintainer-ianstormtaylor maintainer-jongleberry maintainer-juliangruber maintainer-kelonye maintainer-mattmueller maintainer-rauchg maintainer-retrofox maintainer-stagas maintainer-stephenmathieson maintainer-swatinem maintainer-thehydroimpulse maintainer-timaschew maintainer-timoxley maintainer-tjholowaychuk maintainer-tootallnate maintainer-trevorgerhardt maintainer-yields license-mit">

<path fill="none" stroke="#000000" d="M230.5589,-75.3011C230.5589,-75.3011 162.9355,-75.3011 162.9355,-75.3011 159.7018,-75.3011 156.4681,-72.0674 156.4681,-68.8337 156.4681,-68.8337 156.4681,-62.3663 156.4681,-62.3663 156.4681,-59.1326 159.7018,-55.8989 162.9355,-55.8989 162.9355,-55.8989 230.5589,-55.8989 230.5589,-55.8989 233.7926,-55.8989 237.0263,-59.1326 237.0263,-62.3663 237.0263,-62.3663 237.0263,-68.8337 237.0263,-68.8337 237.0263,-72.0674 233.7926,-75.3011 230.5589,-75.3011"></path>
<text text-anchor="middle" x="196.7472" y="-62.3" font-family="Roboto Condensed, sans-serif" font-size="11.00" fill="#000000">debounce@1.2.0</text>
</g>
<!-- egg&#45;development@2.4.3&#45;&gt;debounce@1.2.0 -->
<g id="edge2" class="edge">

<path fill="none" stroke="#000000" d="M60.6397,-225.9262C70.4025,-199.4231 101.0701,-124.8783 150.4941,-83.6 151.8581,-82.4608 153.3026,-81.3883 154.8057,-80.3792"></path>
<polygon fill="#000000" stroke="#000000" points="156.8986,-83.218 163.9035,-75.2692 153.4706,-77.1148 156.8986,-83.218"></polygon>
</g>
<!-- multimatch@2.1.0 -->
<g id="node4" class="node module-multimatch maintainer-sindresorhus license-mit">

<path fill="none" stroke="#000000" d="M234.5173,-112.3011C234.5173,-112.3011 158.9771,-112.3011 158.9771,-112.3011 155.7435,-112.3011 152.5098,-109.0674 152.5098,-105.8337 152.5098,-105.8337 152.5098,-99.3663 152.5098,-99.3663 152.5098,-96.1326 155.7435,-92.8989 158.9771,-92.8989 158.9771,-92.8989 234.5173,-92.8989 234.5173,-92.8989 237.7509,-92.8989 240.9846,-96.1326 240.9846,-99.3663 240.9846,-99.3663 240.9846,-105.8337 240.9846,-105.8337 240.9846,-109.0674 237.7509,-112.3011 234.5173,-112.3011"></path>
<text text-anchor="middle" x="196.7472" y="-99.3" font-family="Roboto Condensed, sans-serif" font-size="11.00" fill="#000000">multimatch@2.1.0</text>
</g>
<!-- egg&#45;development@2.4.3&#45;&gt;multimatch@2.1.0 -->
<g id="edge3" class="edge">

<path fill="none" stroke="#000000" d="M67.7322,-225.6034C91.4789,-202.9632 149.5847,-147.5649 179.0275,-119.494"></path>
<polygon fill="#000000" stroke="#000000" points="181.6969,-121.7848 186.5195,-112.3512 176.8666,-116.7184 181.6969,-121.7848"></polygon>
</g>
<!-- mz@2.7.0 -->
<g id="node12" class="node module-mz maintainer-evancarroll maintainer-coderhaoxin maintainer-rstacruz maintainer-linusu maintainer-dead_horse maintainer-jongleberry maintainer-swatinem license-mit">

<path fill="none" stroke="#000000" d="M343.7404,-468.3011C343.7404,-468.3011 305.5322,-468.3011 305.5322,-468.3011 302.2985,-468.3011 299.0648,-465.0674 299.0648,-461.8337 299.0648,-461.8337 299.0648,-455.3663 299.0648,-455.3663 299.0648,-452.1326 302.2985,-448.8989 305.5322,-448.8989 305.5322,-448.8989 343.7404,-448.8989 343.7404,-448.8989 346.9741,-448.8989 350.2078,-452.1326 350.2078,-455.3663 350.2078,-455.3663 350.2078,-461.8337 350.2078,-461.8337 350.2078,-465.0674 346.9741,-468.3011 343.7404,-468.3011"></path>
<text text-anchor="middle" x="324.6363" y="-455.3" font-family="Roboto Condensed, sans-serif" font-size="11.00" fill="#000000">mz@2.7.0</text>
</g>
<!-- egg&#45;development@2.4.3&#45;&gt;mz@2.7.0 -->
<g id="edge12" class="edge">

<path fill="none" stroke="#000000" d="M60.9287,-245.3545C71.2088,-271.3943 102.6427,-343.3632 150.4941,-384.6 191.209,-419.6867 251.0145,-440.1515 288.8763,-450.3526"></path>
<polygon fill="#000000" stroke="#000000" points="288.381,-453.8398 298.9393,-452.9612 290.1376,-447.0638 288.381,-453.8398"></polygon>
</g>
<!-- utility@1.16.1 -->
<g id="node13" class="node module-utility maintainer-dead_horse maintainer-fengmk2 maintainer-xadillax license-mit">

<path fill="none" stroke="#000000" d="M225.1943,-375.3011C225.1943,-375.3011 168.3001,-375.3011 168.3001,-375.3011 165.0664,-375.3011 161.8327,-372.0674 161.8327,-368.8337 161.8327,-368.8337 161.8327,-362.3663 161.8327,-362.3663 161.8327,-359.1326 165.0664,-355.8989 168.3001,-355.8989 168.3001,-355.8989 225.1943,-355.8989 225.1943,-355.8989 228.428,-355.8989 231.6617,-359.1326 231.6617,-362.3663 231.6617,-362.3663 231.6617,-368.8337 231.6617,-368.8337 231.6617,-372.0674 228.428,-375.3011 225.1943,-375.3011"></path>
<text text-anchor="middle" x="196.7472" y="-362.3" font-family="Roboto Condensed, sans-serif" font-size="11.00" fill="#000000">utility@1.16.1</text>
</g>
<!-- egg&#45;development@2.4.3&#45;&gt;utility@1.16.1 -->
<g id="edge13" class="edge">

<path fill="none" stroke="#000000" d="M67.7322,-245.3711C91.363,-267.3926 149.0186,-321.1218 178.5946,-348.6836"></path>
<polygon fill="#000000" stroke="#000000" points="176.4384,-351.4584 186.1403,-355.7155 181.2107,-346.3373 176.4384,-351.4584"></polygon>
</g>
<!-- mkdirp@0.5.1 -->
<g id="node6" class="node module-mkdirp maintainer-substack license-mit">

<path fill="none" stroke="#000000" d="M353.0746,-320.3011C353.0746,-320.3011 296.198,-320.3011 296.198,-320.3011 292.9643,-320.3011 289.7306,-317.0674 289.7306,-313.8337 289.7306,-313.8337 289.7306,-307.3663 289.7306,-307.3663 289.7306,-304.1326 292.9643,-300.8989 296.198,-300.8989 296.198,-300.8989 353.0746,-300.8989 353.0746,-300.8989 356.3083,-300.8989 359.542,-304.1326 359.542,-307.3663 359.542,-307.3663 359.542,-313.8337 359.542,-313.8337 359.542,-317.0674 356.3083,-320.3011 353.0746,-320.3011"></path>
<text text-anchor="middle" x="324.6363" y="-307.3" font-family="Roboto Condensed, sans-serif" font-size="11.00" fill="#000000">mkdirp@0.5.1</text>
</g>
<!-- mz&#45;modules@2.1.0&#45;&gt;mkdirp@0.5.1 -->
<g id="edge5" class="edge">

<path fill="none" stroke="#000000" d="M208.7201,-245.222C224.2482,-257.3823 252.4924,-278.4321 279.0003,-292.6 281.8546,-294.1256 284.8671,-295.5948 287.9279,-296.9909"></path>
<polygon fill="#000000" stroke="#000000" points="286.5752,-300.219 297.1453,-300.9426 289.3335,-293.7854 286.5752,-300.219"></polygon>
</g>
<!-- pump@3.0.0 -->
<g id="node7" class="node module-pump maintainer-mafintosh license-mit">

<path fill="none" stroke="#000000" d="M484.157,-246.3011C484.157,-246.3011 433.7176,-246.3011 433.7176,-246.3011 430.4839,-246.3011 427.2502,-243.0674 427.2502,-239.8337 427.2502,-239.8337 427.2502,-233.3663 427.2502,-233.3663 427.2502,-230.1326 430.4839,-226.8989 433.7176,-226.8989 433.7176,-226.8989 484.157,-226.8989 484.157,-226.8989 487.3907,-226.8989 490.6244,-230.1326 490.6244,-233.3663 490.6244,-233.3663 490.6244,-239.8337 490.6244,-239.8337 490.6244,-243.0674 487.3907,-246.3011 484.157,-246.3011"></path>
<text text-anchor="middle" x="458.9373" y="-233.3" font-family="Roboto Condensed, sans-serif" font-size="11.00" fill="#000000">pump@3.0.0</text>
</g>
<!-- mz&#45;modules@2.1.0&#45;&gt;pump@3.0.0 -->
<g id="edge6" class="edge">

<path fill="none" stroke="#000000" d="M243.018,-235.7765C292.2207,-235.9641 369.3607,-236.2584 416.889,-236.4396"></path>
<polygon fill="#000000" stroke="#000000" points="417.1264,-239.9405 427.1397,-236.4787 417.1531,-232.9405 417.1264,-239.9405"></polygon>
</g>
<!-- ko&#45;sleep@1.0.3 -->
<g id="node8" class="node module-ko_sleep maintainer-alsotang license-mit">

<path fill="none" stroke="#000000" d="M356.0624,-283.3011C356.0624,-283.3011 293.2102,-283.3011 293.2102,-283.3011 289.9766,-283.3011 286.7429,-280.0674 286.7429,-276.8337 286.7429,-276.8337 286.7429,-270.3663 286.7429,-270.3663 286.7429,-267.1326 289.9766,-263.8989 293.2102,-263.8989 293.2102,-263.8989 356.0624,-263.8989 356.0624,-263.8989 359.296,-263.8989 362.5297,-267.1326 362.5297,-270.3663 362.5297,-270.3663 362.5297,-276.8337 362.5297,-276.8337 362.5297,-280.0674 359.296,-283.3011 356.0624,-283.3011"></path>
<text text-anchor="middle" x="324.6363" y="-270.3" font-family="Roboto Condensed, sans-serif" font-size="11.00" fill="#000000">ko-sleep@1.0.3</text>
</g>
<!-- mz&#45;modules@2.1.0&#45;&gt;ko&#45;sleep@1.0.3 -->
<g id="edge7" class="edge">

<path fill="none" stroke="#000000" d="M229.3499,-245.2873C245.4344,-250.0665 265.0337,-255.8901 282.2654,-261.0102"></path>
<polygon fill="#000000" stroke="#000000" points="281.5104,-264.4371 292.0931,-263.9304 283.5042,-257.727 281.5104,-264.4371"></polygon>
</g>
<!-- glob@7.1.4 -->
<g id="node10" class="node module-glob maintainer-isaacs license-isc">

<path fill="none" stroke="#000000" d="M481.1576,-169.3011C481.1576,-169.3011 436.717,-169.3011 436.717,-169.3011 433.4833,-169.3011 430.2497,-166.0674 430.2497,-162.8337 430.2497,-162.8337 430.2497,-156.3663 430.2497,-156.3663 430.2497,-153.1326 433.4833,-149.8989 436.717,-149.8989 436.717,-149.8989 481.1576,-149.8989 481.1576,-149.8989 484.3913,-149.8989 487.6249,-153.1326 487.6249,-156.3663 487.6249,-156.3663 487.6249,-162.8337 487.6249,-162.8337 487.6249,-166.0674 484.3913,-169.3011 481.1576,-169.3011"></path>
<text text-anchor="middle" x="458.9373" y="-156.3" font-family="Roboto Condensed, sans-serif" font-size="11.00" fill="#000000">glob@7.1.4</text>
</g>
<!-- mz&#45;modules@2.1.0&#45;&gt;glob@7.1.4 -->
<g id="edge9" class="edge">

<path fill="none" stroke="#000000" d="M229.9538,-225.9745C278.5269,-211.8948 368.7553,-185.7407 420.258,-170.8118"></path>
<polygon fill="#000000" stroke="#000000" points="421.3881,-174.1284 430.0183,-167.9826 419.4392,-167.4051 421.3881,-174.1284"></polygon>
</g>
<!-- rimraf@2.7.1 -->
<g id="node28" class="node module-rimraf maintainer-isaacs license-isc">

<path fill="none" stroke="#000000" d="M350.7824,-169.3011C350.7824,-169.3011 298.4902,-169.3011 298.4902,-169.3011 295.2565,-169.3011 292.0229,-166.0674 292.0229,-162.8337 292.0229,-162.8337 292.0229,-156.3663 292.0229,-156.3663 292.0229,-153.1326 295.2565,-149.8989 298.4902,-149.8989 298.4902,-149.8989 350.7824,-149.8989 350.7824,-149.8989 354.0161,-149.8989 357.2497,-153.1326 357.2497,-156.3663 357.2497,-156.3663 357.2497,-162.8337 357.2497,-162.8337 357.2497,-166.0674 354.0161,-169.3011 350.7824,-169.3011"></path>
<text text-anchor="middle" x="324.6363" y="-156.3" font-family="Roboto Condensed, sans-serif" font-size="11.00" fill="#000000">rimraf@2.7.1</text>
</g>
<!-- mz&#45;modules@2.1.0&#45;&gt;rimraf@2.7.1 -->
<g id="edge33" class="edge">

<path fill="none" stroke="#000000" d="M211.3888,-225.8462C227.6714,-215.1169 254.8641,-197.5465 279.0003,-183.6 284.5954,-180.367 290.6638,-177.0489 296.4937,-173.9509"></path>
<polygon fill="#000000" stroke="#000000" points="298.1227,-177.0487 305.3562,-169.3074 294.874,-170.8482 298.1227,-177.0487"></polygon>
</g>
<!-- minimatch@3.0.4 -->
<g id="node5" class="node module-minimatch maintainer-isaacs license-isc">

<path fill="none" stroke="#000000" d="M638.0082,-58.3011C638.0082,-58.3011 565.5822,-58.3011 565.5822,-58.3011 562.3485,-58.3011 559.1148,-55.0674 559.1148,-51.8337 559.1148,-51.8337 559.1148,-45.3663 559.1148,-45.3663 559.1148,-42.1326 562.3485,-38.8989 565.5822,-38.8989 565.5822,-38.8989 638.0082,-38.8989 638.0082,-38.8989 641.2419,-38.8989 644.4756,-42.1326 644.4756,-45.3663 644.4756,-45.3663 644.4756,-51.8337 644.4756,-51.8337 644.4756,-55.0674 641.2419,-58.3011 638.0082,-58.3011"></path>
<text text-anchor="middle" x="601.7952" y="-45.3" font-family="Roboto Condensed, sans-serif" font-size="11.00" fill="#000000">minimatch@3.0.4</text>
</g>
<!-- multimatch@2.1.0&#45;&gt;minimatch@3.0.4 -->
<g id="edge4" class="edge">

<path fill="none" stroke="#000000" d="M237.9345,-112.2462C299.9886,-124.6979 419.9422,-140.5668 511.6023,-102.6 532.5073,-93.9409 528.3479,-78.4857 547.6023,-66.6 550.0936,-65.0621 552.7312,-63.6396 555.4483,-62.3261"></path>
<polygon fill="#000000" stroke="#000000" points="557.086,-65.4321 564.8953,-58.2721 554.3254,-58.9994 557.086,-65.4321"></polygon>
</g>
<!-- array&#45;union@1.0.2 -->
<g id="node9" class="node module-array_union maintainer-sindresorhus license-mit">

<path fill="none" stroke="#000000" d="M363.1083,-93.3011C363.1083,-93.3011 286.1643,-93.3011 286.1643,-93.3011 282.9306,-93.3011 279.6969,-90.0674 279.6969,-86.8337 279.6969,-86.8337 279.6969,-80.3663 279.6969,-80.3663 279.6969,-77.1326 282.9306,-73.8989 286.1643,-73.8989 286.1643,-73.8989 363.1083,-73.8989 363.1083,-73.8989 366.342,-73.8989 369.5757,-77.1326 369.5757,-80.3663 369.5757,-80.3663 369.5757,-86.8337 369.5757,-86.8337 369.5757,-90.0674 366.342,-93.3011 363.1083,-93.3011"></path>
<text text-anchor="middle" x="324.6363" y="-80.3" font-family="Roboto Condensed, sans-serif" font-size="11.00" fill="#000000">array-union@1.0.2</text>
</g>
<!-- multimatch@2.1.0&#45;&gt;array&#45;union@1.0.2 -->
<g id="edge8" class="edge">

<path fill="none" stroke="#000000" d="M241.1177,-96.008C250.4343,-94.6239 260.3645,-93.1486 270.006,-91.7162"></path>
<polygon fill="#000000" stroke="#000000" points="270.534,-95.1763 279.9111,-90.2447 269.5053,-88.2523 270.534,-95.1763"></polygon>
</g>
<!-- array&#45;differ@1.0.0 -->
<g id="node11" class="node module-array_differ maintainer-sindresorhus license-mit">

<path fill="none" stroke="#000000" d="M362.476,-19.3011C362.476,-19.3011 286.7966,-19.3011 286.7966,-19.3011 283.5629,-19.3011 280.3292,-16.0674 280.3292,-12.8337 280.3292,-12.8337 280.3292,-6.3663 280.3292,-6.3663 280.3292,-3.1326 283.5629,.1011 286.7966,.1011 286.7966,.1011 362.476,.1011 362.476,.1011 365.7097,.1011 368.9434,-3.1326 368.9434,-6.3663 368.9434,-6.3663 368.9434,-12.8337 368.9434,-12.8337 368.9434,-16.0674 365.7097,-19.3011 362.476,-19.3011"></path>
<text text-anchor="middle" x="324.6363" y="-6.3" font-family="Roboto Condensed, sans-serif" font-size="11.00" fill="#000000">array-differ@1.0.0</text>
</g>
<!-- multimatch@2.1.0&#45;&gt;array&#45;differ@1.0.0 -->
<g id="edge11" class="edge">

<path fill="none" stroke="#000000" d="M229.553,-92.8852C234.3504,-90.6237 239.0107,-87.8881 243.0003,-84.6 266.1224,-65.5435 255.9218,-46.7091 279.0003,-27.6 280.3533,-26.4797 281.7845,-25.4231 283.2726,-24.4272"></path>
<polygon fill="#000000" stroke="#000000" points="285.2687,-27.3201 292.2675,-19.366 281.836,-21.2195 285.2687,-27.3201"></polygon>
</g>
<!-- arrify@1.0.1 -->
<g id="node25" class="node module-arrify maintainer-sindresorhus license-mit">

<path fill="none" stroke="#000000" d="M349.2259,-56.3011C349.2259,-56.3011 300.0467,-56.3011 300.0467,-56.3011 296.813,-56.3011 293.5793,-53.0674 293.5793,-49.8337 293.5793,-49.8337 293.5793,-43.3663 293.5793,-43.3663 293.5793,-40.1326 296.813,-36.8989 300.0467,-36.8989 300.0467,-36.8989 349.2259,-36.8989 349.2259,-36.8989 352.4596,-36.8989 355.6933,-40.1326 355.6933,-43.3663 355.6933,-43.3663 355.6933,-49.8337 355.6933,-49.8337 355.6933,-53.0674 352.4596,-56.3011 349.2259,-56.3011"></path>
<text text-anchor="middle" x="324.6363" y="-43.3" font-family="Roboto Condensed, sans-serif" font-size="11.00" fill="#000000">arrify@1.0.1</text>
</g>
<!-- multimatch@2.1.0&#45;&gt;arrify@1.0.1 -->
<g id="edge30" class="edge">

<path fill="none" stroke="#000000" d="M223.4254,-92.9303C229.9043,-90.3874 236.7609,-87.5306 243.0003,-84.6 259.5672,-76.8186 262.4512,-72.4192 279.0003,-64.6 282.1768,-63.0991 285.5145,-61.6146 288.879,-60.1801"></path>
<polygon fill="#000000" stroke="#000000" points="290.4027,-63.338 298.3202,-56.2978 287.7405,-56.864 290.4027,-63.338"></polygon>
</g>
<!-- brace&#45;expansion@1.1.11 -->
<g id="node15" class="node module-brace_expansion maintainer-isaacs maintainer-juliangruber license-mit">

<path fill="none" stroke="#000000" d="M801.0756,-58.3011C801.0756,-58.3011 698.6036,-58.3011 698.6036,-58.3011 695.3699,-58.3011 692.1362,-55.0674 692.1362,-51.8337 692.1362,-51.8337 692.1362,-45.3663 692.1362,-45.3663 692.1362,-42.1326 695.3699,-38.8989 698.6036,-38.8989 698.6036,-38.8989 801.0756,-38.8989 801.0756,-38.8989 804.3093,-38.8989 807.543,-42.1326 807.543,-45.3663 807.543,-45.3663 807.543,-51.8337 807.543,-51.8337 807.543,-55.0674 804.3093,-58.3011 801.0756,-58.3011"></path>
<text text-anchor="middle" x="749.8396" y="-45.3" font-family="Roboto Condensed, sans-serif" font-size="11.00" fill="#000000">brace-expansion@1.1.11</text>
</g>
<!-- minimatch@3.0.4&#45;&gt;brace&#45;expansion@1.1.11 -->
<g id="edge17" class="edge">

<path fill="none" stroke="#000000" d="M644.6158,-48.6C656.2731,-48.6 669.1941,-48.6 681.8764,-48.6"></path>
<polygon fill="#000000" stroke="#000000" points="681.9674,-52.1001 691.9674,-48.6 681.9673,-45.1001 681.9674,-52.1001"></polygon>
</g>
<!-- minimist@0.0.8 -->
<g id="node14" class="node module-minimist maintainer-substack license-mit">

<path fill="none" stroke="#000000" d="M491.2195,-320.3011C491.2195,-320.3011 426.6551,-320.3011 426.6551,-320.3011 423.4214,-320.3011 420.1877,-317.0674 420.1877,-313.8337 420.1877,-313.8337 420.1877,-307.3663 420.1877,-307.3663 420.1877,-304.1326 423.4214,-300.8989 426.6551,-300.8989 426.6551,-300.8989 491.2195,-300.8989 491.2195,-300.8989 494.4532,-300.8989 497.6869,-304.1326 497.6869,-307.3663 497.6869,-307.3663 497.6869,-313.8337 497.6869,-313.8337 497.6869,-317.0674 494.4532,-320.3011 491.2195,-320.3011"></path>
<text text-anchor="middle" x="458.9373" y="-307.3" font-family="Roboto Condensed, sans-serif" font-size="11.00" fill="#000000">minimist@0.0.8</text>
</g>
<!-- mkdirp@0.5.1&#45;&gt;minimist@0.0.8 -->
<g id="edge16" class="edge">

<path fill="none" stroke="#000000" d="M359.5717,-310.6C374.8899,-310.6 393.1392,-310.6 409.793,-310.6"></path>
<polygon fill="#000000" stroke="#000000" points="409.9157,-314.1001 419.9157,-310.6 409.9157,-307.1001 409.9157,-314.1001"></polygon>
</g>
<!-- once@1.4.0 -->
<g id="node16" class="node module-once maintainer-isaacs license-isc">

<path fill="none" stroke="#000000" d="M772.768,-207.3011C772.768,-207.3011 726.9112,-207.3011 726.9112,-207.3011 723.6775,-207.3011 720.4438,-204.0674 720.4438,-200.8337 720.4438,-200.8337 720.4438,-194.3663 720.4438,-194.3663 720.4438,-191.1326 723.6775,-187.8989 726.9112,-187.8989 726.9112,-187.8989 772.768,-187.8989 772.768,-187.8989 776.0017,-187.8989 779.2354,-191.1326 779.2354,-194.3663 779.2354,-194.3663 779.2354,-200.8337 779.2354,-200.8337 779.2354,-204.0674 776.0017,-207.3011 772.768,-207.3011"></path>
<text text-anchor="middle" x="749.8396" y="-194.3" font-family="Roboto Condensed, sans-serif" font-size="11.00" fill="#000000">once@1.4.0</text>
</g>
<!-- pump@3.0.0&#45;&gt;once@1.4.0 -->
<g id="edge18" class="edge">

<path fill="none" stroke="#000000" d="M490.283,-246.286C529.6956,-256.9255 599.0882,-270.5253 655.9881,-254.6 684.3854,-246.6521 712.7314,-227.4976 730.7197,-213.5815"></path>
<polygon fill="#000000" stroke="#000000" points="733.0343,-216.2125 738.6731,-207.2429 728.6715,-210.7383 733.0343,-216.2125"></polygon>
</g>
<!-- end&#45;of&#45;stream@1.4.4 -->
<g id="node18" class="node module-end_of_stream maintainer-mafintosh license-mit">

<path fill="none" stroke="#000000" d="M645.1459,-321.3011C645.1459,-321.3011 558.4445,-321.3011 558.4445,-321.3011 555.2108,-321.3011 551.9771,-318.0674 551.9771,-314.8337 551.9771,-314.8337 551.9771,-308.3663 551.9771,-308.3663 551.9771,-305.1326 555.2108,-301.8989 558.4445,-301.8989 558.4445,-301.8989 645.1459,-301.8989 645.1459,-301.8989 648.3796,-301.8989 651.6133,-305.1326 651.6133,-308.3663 651.6133,-308.3663 651.6133,-314.8337 651.6133,-314.8337 651.6133,-318.0674 648.3796,-321.3011 645.1459,-321.3011"></path>
<text text-anchor="middle" x="601.7952" y="-308.3" font-family="Roboto Condensed, sans-serif" font-size="11.00" fill="#000000">end-of-stream@1.4.4</text>
</g>
<!-- pump@3.0.0&#45;&gt;end&#45;of&#45;stream@1.4.4 -->
<g id="edge21" class="edge">

<path fill="none" stroke="#000000" d="M490.7906,-245.1246C497.8904,-247.6611 505.2042,-250.8026 511.6023,-254.6 530.2674,-265.6781 529.44,-275.7155 547.6023,-287.6 553.3295,-291.3476 559.7391,-294.7679 566.0898,-297.7782"></path>
<polygon fill="#000000" stroke="#000000" points="564.7086,-300.9945 575.266,-301.8853 567.5684,-294.6053 564.7086,-300.9945"></polygon>
</g>
<!-- ms@2.1.2 -->
<g id="node17" class="node module-ms maintainer-alexaltea maintainer-anatrajkovska maintainer-andybitz maintainer-arunoda maintainer-arzafran maintainer-atcastle maintainer-b3nnyl maintainer-caarlos0 maintainer-codetheory maintainer-coetry maintainer-dav_is maintainer-fivepointseven maintainer-guybedford maintainer-hharnisc maintainer-huvik maintainer-iamevilrabbit maintainer-igorklopov maintainer-ijjk maintainer-janicklas_ralph maintainer-javivelasco maintainer-joecohens maintainer-juancampa maintainer-leo maintainer-lfades maintainer-lucleray maintainer-manovotny maintainer-marcosnils maintainer-matheuss maintainer-mfix22 maintainer-mglagola maintainer-msweeneydev maintainer-nkzawa maintainer-olliv maintainer-paco maintainer-paulogdm maintainer-quietshu maintainer-rabaut maintainer-ragojose maintainer-rauchg maintainer-sarupbanskota maintainer-skllcrn maintainer-sophearak maintainer-styfle maintainer-timer maintainer-timneutkens maintainer-tootallnate maintainer-umegaya maintainer-williamli maintainer-zeit_bot license-mit">

<path fill="none" stroke="#000000" d="M477.9346,-283.3011C477.9346,-283.3011 439.94,-283.3011 439.94,-283.3011 436.7063,-283.3011 433.4726,-280.0674 433.4726,-276.8337 433.4726,-276.8337 433.4726,-270.3663 433.4726,-270.3663 433.4726,-267.1326 436.7063,-263.8989 439.94,-263.8989 439.94,-263.8989 477.9346,-263.8989 477.9346,-263.8989 481.1683,-263.8989 484.402,-267.1326 484.402,-270.3663 484.402,-270.3663 484.402,-276.8337 484.402,-276.8337 484.402,-280.0674 481.1683,-283.3011 477.9346,-283.3011"></path>
<text text-anchor="middle" x="458.9373" y="-270.3" font-family="Roboto Condensed, sans-serif" font-size="11.00" fill="#000000">ms@2.1.2</text>
</g>
<!-- ko&#45;sleep@1.0.3&#45;&gt;ms@2.1.2 -->
<g id="edge19" class="edge">

<path fill="none" stroke="#000000" d="M362.404,-273.6C381.4302,-273.6 404.3766,-273.6 423.1229,-273.6"></path>
<polygon fill="#000000" stroke="#000000" points="423.333,-277.1001 433.333,-273.6 423.3329,-270.1001 423.333,-277.1001"></polygon>
</g>
<!-- array&#45;uniq@1.0.3 -->
<g id="node22" class="node module-array_uniq maintainer-sindresorhus license-mit">

<path fill="none" stroke="#000000" d="M494.4083,-93.3011C494.4083,-93.3011 423.4663,-93.3011 423.4663,-93.3011 420.2327,-93.3011 416.999,-90.0674 416.999,-86.8337 416.999,-86.8337 416.999,-80.3663 416.999,-80.3663 416.999,-77.1326 420.2327,-73.8989 423.4663,-73.8989 423.4663,-73.8989 494.4083,-73.8989 494.4083,-73.8989 497.6419,-73.8989 500.8756,-77.1326 500.8756,-80.3663 500.8756,-80.3663 500.8756,-86.8337 500.8756,-86.8337 500.8756,-90.0674 497.6419,-93.3011 494.4083,-93.3011"></path>
<text text-anchor="middle" x="458.9373" y="-80.3" font-family="Roboto Condensed, sans-serif" font-size="11.00" fill="#000000">array-uniq@1.0.3</text>
</g>
<!-- array&#45;union@1.0.2&#45;&gt;array&#45;uniq@1.0.3 -->
<g id="edge27" class="edge">

<path fill="none" stroke="#000000" d="M369.3566,-83.6C381.2793,-83.6 394.2678,-83.6 406.5612,-83.6"></path>
<polygon fill="#000000" stroke="#000000" points="406.6856,-87.1001 416.6855,-83.6 406.6855,-80.1001 406.6856,-87.1001"></polygon>
</g>
<!-- glob@7.1.4&#45;&gt;minimatch@3.0.4 -->
<g id="edge10" class="edge">

<path fill="none" stroke="#000000" d="M487.8266,-150.5015C496.2055,-146.8484 504.8939,-141.96 511.6023,-135.6 536.7039,-111.8018 521.265,-89.0231 547.6023,-66.6 548.9516,-65.4512 550.3767,-64.3751 551.8604,-63.3671"></path>
<polygon fill="#000000" stroke="#000000" points="553.8708,-66.2525 560.8797,-58.3072 550.4459,-60.1475 553.8708,-66.2525"></polygon>
</g>
<!-- glob@7.1.4&#45;&gt;once@1.4.0 -->
<g id="edge20" class="edge">

<path fill="none" stroke="#000000" d="M487.93,-166.7126C505.1724,-170.7169 527.5296,-175.5173 547.6023,-178.6 603.7166,-187.2178 669.2316,-192.5106 710.1332,-195.2523"></path>
<polygon fill="#000000" stroke="#000000" points="710.026,-198.7527 720.2326,-195.9108 710.4815,-191.7675 710.026,-198.7527"></polygon>
</g>
<!-- fs.realpath@1.0.0 -->
<g id="node19" class="node module-fs_realpath maintainer-isaacs license-isc">

<path fill="none" stroke="#000000" d="M637.5723,-132.3011C637.5723,-132.3011 566.0181,-132.3011 566.0181,-132.3011 562.7844,-132.3011 559.5507,-129.0674 559.5507,-125.8337 559.5507,-125.8337 559.5507,-119.3663 559.5507,-119.3663 559.5507,-116.1326 562.7844,-112.8989 566.0181,-112.8989 566.0181,-112.8989 637.5723,-112.8989 637.5723,-112.8989 640.806,-112.8989 644.0397,-116.1326 644.0397,-119.3663 644.0397,-119.3663 644.0397,-125.8337 644.0397,-125.8337 644.0397,-129.0674 640.806,-132.3011 637.5723,-132.3011"></path>
<text text-anchor="middle" x="601.7952" y="-119.3" font-family="Roboto Condensed, sans-serif" font-size="11.00" fill="#000000">fs.realpath@1.0.0</text>
</g>
<!-- glob@7.1.4&#45;&gt;fs.realpath@1.0.0 -->
<g id="edge23" class="edge">

<path fill="none" stroke="#000000" d="M487.8467,-152.1125C507.007,-147.15 532.5849,-140.5254 554.6523,-134.8099"></path>
<polygon fill="#000000" stroke="#000000" points="555.7057,-138.1527 564.5087,-132.2571 553.9506,-131.3763 555.7057,-138.1527"></polygon>
</g>
<!-- inherits@2.0.4 -->
<g id="node20" class="node module-inherits maintainer-isaacs license-isc">

<path fill="none" stroke="#000000" d="M630.9512,-95.3011C630.9512,-95.3011 572.6392,-95.3011 572.6392,-95.3011 569.4055,-95.3011 566.1718,-92.0674 566.1718,-88.8337 566.1718,-88.8337 566.1718,-82.3663 566.1718,-82.3663 566.1718,-79.1326 569.4055,-75.8989 572.6392,-75.8989 572.6392,-75.8989 630.9512,-75.8989 630.9512,-75.8989 634.1849,-75.8989 637.4186,-79.1326 637.4186,-82.3663 637.4186,-82.3663 637.4186,-88.8337 637.4186,-88.8337 637.4186,-92.0674 634.1849,-95.3011 630.9512,-95.3011"></path>
<text text-anchor="middle" x="601.7952" y="-82.3" font-family="Roboto Condensed, sans-serif" font-size="11.00" fill="#000000">inherits@2.0.4</text>
</g>
<!-- glob@7.1.4&#45;&gt;inherits@2.0.4 -->
<g id="edge24" class="edge">

<path fill="none" stroke="#000000" d="M484.1247,-149.949C493.1061,-146.0407 503.0976,-141.137 511.6023,-135.6 529.5424,-123.92 529.0637,-114.3048 547.6023,-103.6 550.4784,-101.9392 553.5298,-100.4049 556.6613,-98.9923"></path>
<polygon fill="#000000" stroke="#000000" points="558.2548,-102.1228 566.2013,-95.1153 555.6193,-95.6378 558.2548,-102.1228"></polygon>
</g>
<!-- inflight@1.0.6 -->
<g id="node21" class="node module-inflight maintainer-iarna maintainer-isaacs maintainer-othiym23 maintainer-zkat license-isc">

<path fill="none" stroke="#000000" d="M630.3489,-169.3011C630.3489,-169.3011 573.2415,-169.3011 573.2415,-169.3011 570.0079,-169.3011 566.7742,-166.0674 566.7742,-162.8337 566.7742,-162.8337 566.7742,-156.3663 566.7742,-156.3663 566.7742,-153.1326 570.0079,-149.8989 573.2415,-149.8989 573.2415,-149.8989 630.3489,-149.8989 630.3489,-149.8989 633.5825,-149.8989 636.8162,-153.1326 636.8162,-156.3663 636.8162,-156.3663 636.8162,-162.8337 636.8162,-162.8337 636.8162,-166.0674 633.5825,-169.3011 630.3489,-169.3011"></path>
<text text-anchor="middle" x="601.7952" y="-156.3" font-family="Roboto Condensed, sans-serif" font-size="11.00" fill="#000000">inflight@1.0.6</text>
</g>
<!-- glob@7.1.4&#45;&gt;inflight@1.0.6 -->
<g id="edge25" class="edge">

<path fill="none" stroke="#000000" d="M487.8467,-159.6C507.5726,-159.6 534.1006,-159.6 556.5972,-159.6"></path>
<polygon fill="#000000" stroke="#000000" points="556.6109,-163.1001 566.6109,-159.6 556.6108,-156.1001 556.6109,-163.1001"></polygon>
</g>
<!-- path&#45;is&#45;absolute@1.0.1 -->
<g id="node23" class="node module-path_is_absolute maintainer-sindresorhus license-mit">

<path fill="none" stroke="#000000" d="M649.7143,-245.3011C649.7143,-245.3011 553.8761,-245.3011 553.8761,-245.3011 550.6424,-245.3011 547.4087,-242.0674 547.4087,-238.8337 547.4087,-238.8337 547.4087,-232.3663 547.4087,-232.3663 547.4087,-229.1326 550.6424,-225.8989 553.8761,-225.8989 553.8761,-225.8989 649.7143,-225.8989 649.7143,-225.8989 652.948,-225.8989 656.1817,-229.1326 656.1817,-232.3663 656.1817,-232.3663 656.1817,-238.8337 656.1817,-238.8337 656.1817,-242.0674 652.948,-245.3011 649.7143,-245.3011"></path>
<text text-anchor="middle" x="601.7952" y="-232.3" font-family="Roboto Condensed, sans-serif" font-size="11.00" fill="#000000">path-is-absolute@1.0.1</text>
</g>
<!-- glob@7.1.4&#45;&gt;path&#45;is&#45;absolute@1.0.1 -->
<g id="edge28" class="edge">

<path fill="none" stroke="#000000" d="M474.3333,-169.3518C491.7856,-180.2346 521.2406,-198.0875 547.6023,-211.6 554.4014,-215.0851 561.8153,-218.5674 568.9154,-221.7555"></path>
<polygon fill="#000000" stroke="#000000" points="567.7531,-225.0679 578.3158,-225.8932 570.5732,-218.6611 567.7531,-225.0679"></polygon>
</g>
<!-- any&#45;promise@1.3.0 -->
<g id="node24" class="node module-any_promise maintainer-kevinbeaty license-mit">

<path fill="none" stroke="#000000" d="M789.9835,-468.3011C789.9835,-468.3011 709.6957,-468.3011 709.6957,-468.3011 706.462,-468.3011 703.2283,-465.0674 703.2283,-461.8337 703.2283,-461.8337 703.2283,-455.3663 703.2283,-455.3663 703.2283,-452.1326 706.462,-448.8989 709.6957,-448.8989 709.6957,-448.8989 789.9835,-448.8989 789.9835,-448.8989 793.2172,-448.8989 796.4509,-452.1326 796.4509,-455.3663 796.4509,-455.3663 796.4509,-461.8337 796.4509,-461.8337 796.4509,-465.0674 793.2172,-468.3011 789.9835,-468.3011"></path>
<text text-anchor="middle" x="749.8396" y="-455.3" font-family="Roboto Condensed, sans-serif" font-size="11.00" fill="#000000">any-promise@1.3.0</text>
</g>
<!-- mz@2.7.0&#45;&gt;any&#45;promise@1.3.0 -->
<g id="edge29" class="edge">

<path fill="none" stroke="#000000" d="M350.2771,-458.6C417.4252,-458.6 599.6574,-458.6 693.0263,-458.6"></path>
<polygon fill="#000000" stroke="#000000" points="693.1414,-462.1001 703.1414,-458.6 693.1413,-455.1001 693.1414,-462.1001"></polygon>
</g>
<!-- thenify&#45;all@1.6.0 -->
<g id="node26" class="node module-thenify_all maintainer-jongleberry maintainer-dead_horse license-mit">

<path fill="none" stroke="#000000" d="M494.417,-449.3011C494.417,-449.3011 423.4576,-449.3011 423.4576,-449.3011 420.2239,-449.3011 416.9902,-446.0674 416.9902,-442.8337 416.9902,-442.8337 416.9902,-436.3663 416.9902,-436.3663 416.9902,-433.1326 420.2239,-429.8989 423.4576,-429.8989 423.4576,-429.8989 494.417,-429.8989 494.417,-429.8989 497.6507,-429.8989 500.8844,-433.1326 500.8844,-436.3663 500.8844,-436.3663 500.8844,-442.8337 500.8844,-442.8337 500.8844,-446.0674 497.6507,-449.3011 494.417,-449.3011"></path>
<text text-anchor="middle" x="458.9373" y="-436.3" font-family="Roboto Condensed, sans-serif" font-size="11.00" fill="#000000">thenify-all@1.6.0</text>
</g>
<!-- mz@2.7.0&#45;&gt;thenify&#45;all@1.6.0 -->
<g id="edge31" class="edge">

<path fill="none" stroke="#000000" d="M350.2134,-454.9815C366.2212,-452.7168 387.4256,-449.717 406.8553,-446.9682"></path>
<polygon fill="#000000" stroke="#000000" points="407.406,-450.4252 416.8171,-445.5589 406.4254,-443.4943 407.406,-450.4252"></polygon>
</g>
<!-- object&#45;assign@4.1.1 -->
<g id="node33" class="node module-object_assign maintainer-gaearon maintainer-sindresorhus maintainer-spicyj license-mit">

<path fill="none" stroke="#000000" d="M500.6371,-525.3011C500.6371,-525.3011 417.2375,-525.3011 417.2375,-525.3011 414.0038,-525.3011 410.7702,-522.0674 410.7702,-518.8337 410.7702,-518.8337 410.7702,-512.3663 410.7702,-512.3663 410.7702,-509.1326 414.0038,-505.8989 417.2375,-505.8989 417.2375,-505.8989 500.6371,-505.8989 500.6371,-505.8989 503.8708,-505.8989 507.1044,-509.1326 507.1044,-512.3663 507.1044,-512.3663 507.1044,-518.8337 507.1044,-518.8337 507.1044,-522.0674 503.8708,-525.3011 500.6371,-525.3011"></path>
<text text-anchor="middle" x="458.9373" y="-512.3" font-family="Roboto Condensed, sans-serif" font-size="11.00" fill="#000000">object-assign@4.1.1</text>
</g>
<!-- mz@2.7.0&#45;&gt;object&#45;assign@4.1.1 -->
<g id="edge41" class="edge">

<path fill="none" stroke="#000000" d="M347.4186,-468.2693C369.2208,-477.5226 402.3175,-491.5695 426.7969,-501.959"></path>
<polygon fill="#000000" stroke="#000000" points="425.4705,-505.1982 436.0432,-505.8833 428.2054,-498.7545 425.4705,-505.1982"></polygon>
</g>
<!-- utility@1.16.1&#45;&gt;mkdirp@0.5.1 -->
<g id="edge14" class="edge">

<path fill="none" stroke="#000000" d="M217.5888,-355.8984C234.1454,-348.2707 257.9367,-337.4857 279.0003,-328.6 282.5021,-327.1227 286.1698,-325.6135 289.8391,-324.1284"></path>
<polygon fill="#000000" stroke="#000000" points="291.4549,-327.252 299.443,-320.292 288.8581,-320.7515 291.4549,-327.252"></polygon>
</g>
<!-- utility@1.16.1&#45;&gt;mz@2.7.0 -->
<g id="edge15" class="edge">

<path fill="none" stroke="#000000" d="M205.446,-375.5964C219.5353,-391.2727 248.8262,-421.7873 279.0003,-440.6 282.2255,-442.6108 285.713,-444.4675 289.2733,-446.1628"></path>
<polygon fill="#000000" stroke="#000000" points="288.1708,-449.4996 298.7377,-450.2681 290.9564,-443.0777 288.1708,-449.4996"></polygon>
</g>
<!-- escape&#45;html@1.0.3 -->
<g id="node27" class="node module-escape_html maintainer-tjholowaychuk maintainer-dougwilson license-mit">

<path fill="none" stroke="#000000" d="M363.9413,-394.3011C363.9413,-394.3011 285.3313,-394.3011 285.3313,-394.3011 282.0976,-394.3011 278.8639,-391.0674 278.8639,-387.8337 278.8639,-387.8337 278.8639,-381.3663 278.8639,-381.3663 278.8639,-378.1326 282.0976,-374.8989 285.3313,-374.8989 285.3313,-374.8989 363.9413,-374.8989 363.9413,-374.8989 367.175,-374.8989 370.4087,-378.1326 370.4087,-381.3663 370.4087,-381.3663 370.4087,-387.8337 370.4087,-387.8337 370.4087,-391.0674 367.175,-394.3011 363.9413,-394.3011"></path>
<text text-anchor="middle" x="324.6363" y="-381.3" font-family="Roboto Condensed, sans-serif" font-size="11.00" fill="#000000">escape-html@1.0.3</text>
</g>
<!-- utility@1.16.1&#45;&gt;escape&#45;html@1.0.3 -->
<g id="edge32" class="edge">

<path fill="none" stroke="#000000" d="M231.6935,-370.7918C243.1313,-372.4911 256.1395,-374.4237 268.7258,-376.2936"></path>
<polygon fill="#000000" stroke="#000000" points="268.2854,-379.7665 278.6912,-377.7741 269.3142,-372.8425 268.2854,-379.7665"></polygon>
</g>
<!-- copy&#45;to@2.0.1 -->
<g id="node34" class="node module-copy_to maintainer-dead_horse license-mit">

<path fill="none" stroke="#000000" d="M353.901,-357.3011C353.901,-357.3011 295.3716,-357.3011 295.3716,-357.3011 292.1379,-357.3011 288.9042,-354.0674 288.9042,-350.8337 288.9042,-350.8337 288.9042,-344.3663 288.9042,-344.3663 288.9042,-341.1326 292.1379,-337.8989 295.3716,-337.8989 295.3716,-337.8989 353.901,-337.8989 353.901,-337.8989 357.1347,-337.8989 360.3684,-341.1326 360.3684,-344.3663 360.3684,-344.3663 360.3684,-350.8337 360.3684,-350.8337 360.3684,-354.0674 357.1347,-357.3011 353.901,-357.3011"></path>
<text text-anchor="middle" x="324.6363" y="-344.3" font-family="Roboto Condensed, sans-serif" font-size="11.00" fill="#000000">copy-to@2.0.1</text>
</g>
<!-- utility@1.16.1&#45;&gt;copy&#45;to@2.0.1 -->
<g id="edge42" class="edge">

<path fill="none" stroke="#000000" d="M231.6935,-360.6814C246.2536,-358.6321 263.3586,-356.2247 278.8985,-354.0375"></path>
<polygon fill="#000000" stroke="#000000" points="279.4274,-357.4976 288.842,-352.6379 278.4518,-350.5659 279.4274,-357.4976"></polygon>
</g>
<!-- unescape@1.0.1 -->
<g id="node35" class="node module-unescape maintainer-jonschlinkert license-mit">

<path fill="none" stroke="#000000" d="M357.6096,-431.3011C357.6096,-431.3011 291.663,-431.3011 291.663,-431.3011 288.4293,-431.3011 285.1957,-428.0674 285.1957,-424.8337 285.1957,-424.8337 285.1957,-418.3663 285.1957,-418.3663 285.1957,-415.1326 288.4293,-411.8989 291.663,-411.8989 291.663,-411.8989 357.6096,-411.8989 357.6096,-411.8989 360.8433,-411.8989 364.0769,-415.1326 364.0769,-418.3663 364.0769,-418.3663 364.0769,-424.8337 364.0769,-424.8337 364.0769,-428.0674 360.8433,-431.3011 357.6096,-431.3011"></path>
<text text-anchor="middle" x="324.6363" y="-418.3" font-family="Roboto Condensed, sans-serif" font-size="11.00" fill="#000000">unescape@1.0.1</text>
</g>
<!-- utility@1.16.1&#45;&gt;unescape@1.0.1 -->
<g id="edge43" class="edge">

<path fill="none" stroke="#000000" d="M216.8845,-375.294C233.4489,-383.1733 257.5958,-394.4433 279.0003,-403.6 282.4947,-405.0949 286.1575,-406.6155 289.8238,-408.1076"></path>
<polygon fill="#000000" stroke="#000000" points="288.8395,-411.4836 299.4239,-411.9528 291.4423,-404.9854 288.8395,-411.4836"></polygon>
</g>
<!-- concat&#45;map@0.0.1 -->
<g id="node29" class="node module-concat_map maintainer-substack license-mit">

<path fill="none" stroke="#000000" d="M936.042,-40.3011C936.042,-40.3011 859.1001,-40.3011 859.1001,-40.3011 855.8665,-40.3011 852.6328,-37.0674 852.6328,-33.8337 852.6328,-33.8337 852.6328,-27.3663 852.6328,-27.3663 852.6328,-24.1326 855.8665,-20.8989 859.1001,-20.8989 859.1001,-20.8989 936.042,-20.8989 936.042,-20.8989 939.2756,-20.8989 942.5093,-24.1326 942.5093,-27.3663 942.5093,-27.3663 942.5093,-33.8337 942.5093,-33.8337 942.5093,-37.0674 939.2756,-40.3011 936.042,-40.3011"></path>
<text text-anchor="middle" x="897.571" y="-27.3" font-family="Roboto Condensed, sans-serif" font-size="11.00" fill="#000000">concat-map@0.0.1</text>
</g>
<!-- brace&#45;expansion@1.1.11&#45;&gt;concat&#45;map@0.0.1 -->
<g id="edge35" class="edge">

<path fill="none" stroke="#000000" d="M807.803,-41.5376C819.1907,-40.1501 831.1078,-38.6981 842.4008,-37.3221"></path>
<polygon fill="#000000" stroke="#000000" points="843.0602,-40.7677 852.5634,-36.0839 842.2135,-33.8191 843.0602,-40.7677"></polygon>
</g>
<!-- balanced&#45;match@1.0.0 -->
<g id="node31" class="node module-balanced_match maintainer-juliangruber license-mit">

<path fill="none" stroke="#000000" d="M944.8638,-77.3011C944.8638,-77.3011 850.2783,-77.3011 850.2783,-77.3011 847.0446,-77.3011 843.8109,-74.0674 843.8109,-70.8337 843.8109,-70.8337 843.8109,-64.3663 843.8109,-64.3663 843.8109,-61.1326 847.0446,-57.8989 850.2783,-57.8989 850.2783,-57.8989 944.8638,-57.8989 944.8638,-57.8989 948.0975,-57.8989 951.3312,-61.1326 951.3312,-64.3663 951.3312,-64.3663 951.3312,-70.8337 951.3312,-70.8337 951.3312,-74.0674 948.0975,-77.3011 944.8638,-77.3011"></path>
<text text-anchor="middle" x="897.571" y="-64.3" font-family="Roboto Condensed, sans-serif" font-size="11.00" fill="#000000">balanced-match@1.0.0</text>
</g>
<!-- brace&#45;expansion@1.1.11&#45;&gt;balanced&#45;match@1.0.0 -->
<g id="edge38" class="edge">

<path fill="none" stroke="#000000" d="M807.803,-56.0548C816.2857,-57.1457 825.0621,-58.2745 833.6555,-59.3797"></path>
<polygon fill="#000000" stroke="#000000" points="833.266,-62.8584 843.6308,-60.6626 834.159,-55.9155 833.266,-62.8584"></polygon>
</g>
<!-- wrappy@1.0.2 -->
<g id="node30" class="node module-wrappy maintainer-isaacs maintainer-zkat license-isc">

<path fill="none" stroke="#000000" d="M926.7194,-188.3011C926.7194,-188.3011 868.4227,-188.3011 868.4227,-188.3011 865.189,-188.3011 861.9554,-185.0674 861.9554,-181.8337 861.9554,-181.8337 861.9554,-175.3663 861.9554,-175.3663 861.9554,-172.1326 865.189,-168.8989 868.4227,-168.8989 868.4227,-168.8989 926.7194,-168.8989 926.7194,-168.8989 929.9531,-168.8989 933.1867,-172.1326 933.1867,-175.3663 933.1867,-175.3663 933.1867,-181.8337 933.1867,-181.8337 933.1867,-185.0674 929.9531,-188.3011 926.7194,-188.3011"></path>
<text text-anchor="middle" x="897.571" y="-175.3" font-family="Roboto Condensed, sans-serif" font-size="11.00" fill="#000000">wrappy@1.0.2</text>
</g>
<!-- once@1.4.0&#45;&gt;wrappy@1.0.2 -->
<g id="edge36" class="edge">

<path fill="none" stroke="#000000" d="M779.3802,-193.8007C800.0645,-191.1405 828.1073,-187.5339 851.6864,-184.5013"></path>
<polygon fill="#000000" stroke="#000000" points="852.3508,-187.9448 861.8226,-183.1977 851.4578,-181.002 852.3508,-187.9448"></polygon>
</g>
<!-- end&#45;of&#45;stream@1.4.4&#45;&gt;once@1.4.0 -->
<g id="edge22" class="edge">

<path fill="none" stroke="#000000" d="M628.3959,-301.9931C637.5057,-298.148 647.5272,-293.2733 655.9881,-287.6 687.3238,-266.5883 717.7441,-234.6537 735.0893,-215.0129"></path>
<polygon fill="#000000" stroke="#000000" points="737.7726,-217.261 741.687,-207.4157 732.4874,-212.6711 737.7726,-217.261"></polygon>
</g>
<!-- inflight@1.0.6&#45;&gt;once@1.4.0 -->
<g id="edge26" class="edge">

<path fill="none" stroke="#000000" d="M636.8797,-168.6055C658.9267,-174.2645 687.4161,-181.5772 710.2677,-187.4427"></path>
<polygon fill="#000000" stroke="#000000" points="709.4469,-190.8454 720.0031,-189.9416 711.1873,-184.0652 709.4469,-190.8454"></polygon>
</g>
<!-- inflight@1.0.6&#45;&gt;wrappy@1.0.2 -->
<g id="edge37" class="edge">

<path fill="none" stroke="#000000" d="M636.8861,-161.8542C690.2978,-165.2852 792.0383,-171.8208 851.3907,-175.6335"></path>
<polygon fill="#000000" stroke="#000000" points="851.3996,-179.1412 861.6034,-176.2895 851.8484,-172.1556 851.3996,-179.1412"></polygon>
</g>
<!-- thenify@3.3.0 -->
<g id="node32" class="node module-thenify maintainer-jongleberry maintainer-dead_horse license-mit">

<path fill="none" stroke="#000000" d="M630.1169,-449.3011C630.1169,-449.3011 573.4735,-449.3011 573.4735,-449.3011 570.2398,-449.3011 567.0061,-446.0674 567.0061,-442.8337 567.0061,-442.8337 567.0061,-436.3663 567.0061,-436.3663 567.0061,-433.1326 570.2398,-429.8989 573.4735,-429.8989 573.4735,-429.8989 630.1169,-429.8989 630.1169,-429.8989 633.3506,-429.8989 636.5843,-433.1326 636.5843,-436.3663 636.5843,-436.3663 636.5843,-442.8337 636.5843,-442.8337 636.5843,-446.0674 633.3506,-449.3011 630.1169,-449.3011"></path>
<text text-anchor="middle" x="601.7952" y="-436.3" font-family="Roboto Condensed, sans-serif" font-size="11.00" fill="#000000">thenify@3.3.0</text>
</g>
<!-- thenify&#45;all@1.6.0&#45;&gt;thenify@3.3.0 -->
<g id="edge39" class="edge">

<path fill="none" stroke="#000000" d="M501.0267,-439.6C518.5021,-439.6 538.8134,-439.6 556.603,-439.6"></path>
<polygon fill="#000000" stroke="#000000" points="556.7454,-443.1001 566.7453,-439.6 556.7453,-436.1001 556.7454,-443.1001"></polygon>
</g>
<!-- rimraf@2.7.1&#45;&gt;glob@7.1.4 -->
<g id="edge34" class="edge">

<path fill="none" stroke="#000000" d="M357.49,-159.6C376.316,-159.6 400.0582,-159.6 419.8403,-159.6"></path>
<polygon fill="#000000" stroke="#000000" points="420.071,-163.1001 430.071,-159.6 420.0709,-156.1001 420.071,-163.1001"></polygon>
</g>
<!-- thenify@3.3.0&#45;&gt;any&#45;promise@1.3.0 -->
<g id="edge40" class="edge">

<path fill="none" stroke="#000000" d="M636.505,-444.0547C653.312,-446.2117 673.9281,-448.8575 692.9478,-451.2985"></path>
<polygon fill="#000000" stroke="#000000" points="692.6523,-454.7892 703.0165,-452.5907 693.5434,-447.8462 692.6523,-454.7892"></polygon>
</g>
<!-- extend&#45;shallow@2.0.1 -->
<g id="node36" class="node module-extend_shallow maintainer-jonschlinkert license-mit">

<path fill="none" stroke="#000000" d="M505.3005,-412.3011C505.3005,-412.3011 412.5741,-412.3011 412.5741,-412.3011 409.3405,-412.3011 406.1068,-409.0674 406.1068,-405.8337 406.1068,-405.8337 406.1068,-399.3663 406.1068,-399.3663 406.1068,-396.1326 409.3405,-392.8989 412.5741,-392.8989 412.5741,-392.8989 505.3005,-392.8989 505.3005,-392.8989 508.5341,-392.8989 511.7678,-396.1326 511.7678,-399.3663 511.7678,-399.3663 511.7678,-405.8337 511.7678,-405.8337 511.7678,-409.0674 508.5341,-412.3011 505.3005,-412.3011"></path>
<text text-anchor="middle" x="458.9373" y="-399.3" font-family="Roboto Condensed, sans-serif" font-size="11.00" fill="#000000">extend-shallow@2.0.1</text>
</g>
<!-- unescape@1.0.1&#45;&gt;extend&#45;shallow@2.0.1 -->
<g id="edge44" class="edge">

<path fill="none" stroke="#000000" d="M364.2046,-416.0021C374.2753,-414.5774 385.3478,-413.0109 396.262,-411.4669"></path>
<polygon fill="#000000" stroke="#000000" points="396.7962,-414.9262 406.2073,-410.0599 395.8156,-407.9953 396.7962,-414.9262"></polygon>
</g>
<!-- is&#45;extendable@0.1.1 -->
<g id="node37" class="node module-is_extendable maintainer-jonschlinkert license-mit">

<path fill="none" stroke="#000000" d="M643.6001,-412.3011C643.6001,-412.3011 559.9903,-412.3011 559.9903,-412.3011 556.7566,-412.3011 553.5229,-409.0674 553.5229,-405.8337 553.5229,-405.8337 553.5229,-399.3663 553.5229,-399.3663 553.5229,-396.1326 556.7566,-392.8989 559.9903,-392.8989 559.9903,-392.8989 643.6001,-392.8989 643.6001,-392.8989 646.8338,-392.8989 650.0675,-396.1326 650.0675,-399.3663 650.0675,-399.3663 650.0675,-405.8337 650.0675,-405.8337 650.0675,-409.0674 646.8338,-412.3011 643.6001,-412.3011"></path>
<text text-anchor="middle" x="601.7952" y="-399.3" font-family="Roboto Condensed, sans-serif" font-size="11.00" fill="#000000">is-extendable@0.1.1</text>
</g>
<!-- extend&#45;shallow@2.0.1&#45;&gt;is&#45;extendable@0.1.1 -->
<g id="edge45" class="edge">

<path fill="none" stroke="#000000" d="M511.7264,-402.6C521.9796,-402.6 532.7838,-402.6 543.2104,-402.6"></path>
<polygon fill="#000000" stroke="#000000" points="543.4768,-406.1001 553.4767,-402.6 543.4767,-399.1001 543.4768,-406.1001"></polygon>
</g>
</g>
</svg>